<?xml version="1.0" encoding="utf-8"?>
<!-- Generator: Adobe Illustrator 22.0.0, SVG Export Plug-In . SVG Version: 6.00 Build 0)  -->
<svg version="1.1" id="Layer_1" xmlns="http://www.w3.org/2000/svg" xmlns:xlink="http://www.w3.org/1999/xlink" x="0px" y="0px"
	 viewBox="0 0 284.9 252.9" style="enable-background:new 0 0 284.9 252.9;" xml:space="preserve">
<style type="text/css">
	.st0{fill:#B24126;}
</style>
<path class="st0" d="M279,19.8c-0.1,0-0.2,0-0.3,0c-0.1,0-0.7,0-0.7,0c-2.6-0.1-6.6-0.2-10.4-2.8c-0.3-0.2-0.5-0.4-0.8-0.6
	c-0.9-0.8-1.9-1.6-2.8-2.7c-1.1-0.2-2.1-0.3-2.9-0.5c-0.1,0-0.3,0-0.4-0.1c-3.7-0.7-7.5-1-11.8-1c-6.9,0-13.9,0.9-19.9,1.8
	c-7.9,1.2-16.2,3.1-26.9,6c-0.2,0-0.4,0.1-0.5,0.1c-1.2,0.2-2.4,0.6-3.5,1.1c2.5,7.9-0.5,14.8-8.2,18.7c-0.3,0.1-0.6,0.3-0.9,0.4
	c-5,1.8-10,2.1-14.5,2.3c-1.7,0.1-3.2,0.2-4.7,0.3c-5.3,0.5-10.5,1.7-16,3c-1.2,0.3-2.4,0.5-3.5,0.8c-0.3,0.1-0.5,0.1-0.8,0.1
	c-0.9,0.1-1.7,0.2-2.5,0.2c-1.9,0.2-3.3,0.3-4.5,0.8c-0.9,0.4-1.9,0.5-2.9,0.5c-3.9,0-7.3-2.8-8-6.7c-0.3-1.8-0.1-3.6,0.7-5.1
	c-2.7-1.8-5.3-3.8-7.5-6.5c-2.2,0.3-4.1,0.9-6,1.6c-0.1,0-0.2,0.1-0.3,0.1c-2.9,1-5.9,1.9-9.2,1.9c-6.5,0-11.5-3.8-13.5-10.2
	c-0.2-0.7-0.3-1.4-0.4-2.2c-0.1-2,0.2-3.8,0.6-5.4c-3,0.2-6,0.6-9.1,0.9c0,0-0.7,0.1-0.8,0.1c-1.5,0.1-3,0.2-4.5,0.3
	c-3.3,0.2-6.4,0.5-9.5,0.9c-2.5,0.5-4.9,1.1-7.5,1.7c-3.4,0.8-6.8,1.7-10.5,2.3C53.6,22,53.2,22,52.8,22c-0.4,0-0.8,0-1.3-0.1
	C45.6,21,41,18,38.6,13.5c-2.1-4-2.4-8.7-0.8-13.5c-7.7,1.4-15.6,3.4-23.9,6.3c-0.2,0.1-0.3,0.1-0.5,0.2c-2,0.5-4.1,0.8-6.2,0.8
	C4.5,7.3,2.1,6.8,0,6v246.9h285V18.2C283.2,19.1,281.2,19.7,279,19.8z"/>
</svg>
