<?xml version="1.0" encoding="utf-8"?>
<!-- Generator: Adobe Illustrator 22.0.0, SVG Export Plug-In . SVG Version: 6.00 Build 0)  -->
<svg version="1.1" id="Layer_1" xmlns="http://www.w3.org/2000/svg" xmlns:xlink="http://www.w3.org/1999/xlink" x="0px" y="0px"
	 viewBox="0 0 377.3 199.5" style="enable-background:new 0 0 377.3 199.5;" xml:space="preserve">
<style type="text/css">
	.st0{fill:#26382D;}
</style>
<g>
	<path class="st0" d="M344.3,51.3c1,0.6,2.1,1.3,3.1,1.9c0.8,0.5,1.7,0.8,2.4,1.4c1.8,1.5,1.8,1.7,0.3,3.4c-0.4,0.4-0.6,1.1-0.9,1.7
		c-0.6-0.3-1.2-0.8-1.9-0.9c-0.7-0.2-1.7-0.3-2.1,0c-0.6,0.6-0.8,1.6-0.9,2.4c0,0.3,0.6,0.8,1,0.9c0.5,0.1,1.1,0,1.7-0.1
		c2-0.3,2.5,0.1,2.3,2.1c-0.1,1.1,0.4,1.7,1.5,1.9c0.7,0.1,1.5,0.1,2.1,0.3c0.7,0.2,1.2,0.7,2.2,1.3c-1.7,0.7-2.8,1.3-4,1.7
		c-1,0.4-1.6,0.8-0.8,2c0.2,0.3-0.1,0.8-0.1,1.3c0.3,0.1,0.6,0.3,1,0.4c0.9,0.3,2.3,0.4,2.6,1c0.8,1.3,1.5,2.9,1.5,4.5
		c0.1,1.9,0.4,3.1,2.3,3.7c1.4,0.4,1.7,1.5,1.4,2.9c-0.7,3.1-0.4,3.7,2.5,5.1c1.5,0.7,3,1.4,4.6,2.1c-1,1.6-2.4,1.3-3.6,1.3
		c-1,0-1.9-0.6-2.9-0.7c-1.2-0.2-2.4-0.2-3.5-0.3c-0.1,0.2-0.2,0.4-0.3,0.7c1.3,1.1,2.6,2.2,4,3.4c-1.8-0.2-3.2-0.3-4.5-0.7
		c-2.2-0.6-4.5-1.3-6.6-2.3c-1-0.5-1.8-0.7-3,0c1,1,1.9,1.9,2.9,2.7c1.9,1.6,3.8,3.1,5.6,4.8c1.3,1.2,2.7,2.2,4.5,2.6
		c1.4,0.3,2.7,0.9,4,1.5c0.4,0.2,0.8,0.5,1.2,0.8c0,0.1-0.1,0.3-0.1,0.4c-1,0.1-2,0.3-2.8,0.4c2.1,2.9,4.3,5.9,6.5,8.9
		c0.2,0.2,0,0.6,0,1.4c-1.3-0.5-2.5-0.8-3.6-1.3c-1.5-0.7-2.9-0.9-4.4,0.4c0.7,0.6,1.4,1.2,2.1,1.7c1.3,0.9,2.9,1.4,3.4,3.2
		c0.1,0.2,0.5,0.4,0.8,0.6c3.1,2,5.7,4.6,8,7.5c-1.2-0.5-2.4-1-3.6-1.5c-1-0.4-2.1-0.7-3.2-0.8c-2.3-1.6-2.7-1.7-4.4-0.1
		c2.5,4.5,4.9,8.9,7.1,12.9c-2.4-2-5.4-4.4-8.4-6.8c-0.1,0.1-0.2,0.2-0.3,0.3c2.7,3.8,5.3,7.6,8.1,11.5c-0.4-0.2-0.7-0.3-0.9-0.5
		c-1.6-1.6-3.3-1.1-4.9,0.1c-0.6,0.4-1,0.7-1.3-0.2c-0.5-1.5-1.5-1.7-2.7-1.1c-1.6,0.8-2.1,0.8-2.9-1.3c-0.2-0.6-0.3-1.2-0.6-1.7
		c-0.2-0.3-0.8-0.8-0.9-0.7c-1.5,1-1.6-0.2-1.9-1.3c-0.7,0.4-1.3,0.7-2,1.1c0.7,0.7,1.4,1.3,2,1.9c0.6,0.6,1.1,1.4,1.7,2
		c0.5,0.5,1,1.2,1.6,1.3c1.8,0.3,2.7,1.5,3.5,2.9c0.4,0.6,0.7,1.3,1.2,1.7c0.5,0.4,1.3,0.9,1.8,0.8c2.7-0.8,4.6,0.6,6.4,2.2
		c3,2.7,4.9,6.3,6.7,9.9c0.3,0.6,0.6,1.3,0.8,2.1c-0.4-0.5-0.8-0.9-1.2-1.4c-2.1-2.2-4.3-4.1-7.6-4.4c-0.8-0.1-1.6-0.8-2.2-1
		c1.2,2.5,2.5,5.2,3.8,7.9c-0.1,0.1-0.3,0.2-0.4,0.3c-1.4-0.8-2.8-1.6-4.2-2.4c-0.2-0.1-0.5-0.1-0.7-0.1c-2,0.1-2.4-0.2-2.9-2.1
		c-0.6-2.2-2.2-3.9-3.7-5.3c-1.1-1.1-1.8-2.3-2.6-3.5c-0.6-0.8-1.3-1.5-2.3-2.6c-1,1.8-1.9,3.3-2.7,4.8c-0.1,0.2,0,0.5,0.1,0.7
		c1.2,2.7,2.2,5.5,4.8,7.2c0.4,0.3,0.7,0.9,0.9,1.4c0.5,2.4,1,4.7,1.2,7.2c-0.3-0.4-0.6-0.8-1-1.1c-0.8-0.6-1.7-1.3-2.6-1.5
		c-1.4-0.2-2.2-0.9-2.5-2.2c-0.4-1.8-1.2-3-3.3-3.6c-2.5-0.7-3.8-2.6-3.9-5.3c-0.1-2-0.8-3.9-1.3-5.9c-1.1,0.6-1.9,1.2-1.9,2.7
		c0.3,7.1,0.3,14.3,0.6,21.4c0.3,4.9,0.9,9.8,3,14.4c0.7,1.5,1.6,2.4,3.3,2.9c6.1,1.7,12.1,3.9,17.8,7.1c-1.1,0-2.3,0-3.4,0
		c-28.8,0-57.6,0-86.4,0c-10.7,0-21.4-0.1-32.1-0.3c-4-0.1-8-0.7-12.1-1.1c-0.4,0-0.9-0.1-1.2-0.3c-0.7-0.4-1.4-0.9-2.1-1.3
		c0.6-0.6,1-1.5,1.7-1.7c4.1-1.5,8.2-3.3,12.5-4.3c13.7-3.3,27.5-6.3,41.3-9.5c6.1-1.4,12.1-3,18.2-4.6c1-0.2,2.1-0.4,2.4-2
		c-0.8-0.4-1.7-1-2.6-1.4c-2.4-1.1-2.7-2.8-0.6-4.6c0.1-0.1,0.2-0.2,0.3-0.3c3.3-1.3,4.6-4.6,6.6-7.2c-1.9,0.1-3,0.8-3.2,2.6
		c-0.2,1.4-0.9,1.8-2.1,2c-1.1,0.2-2.3,0.3-3.4,0.4c-2.3,0.2-4.4,1-6.3,2.4c1.5-3.4,4.1-5.7,7.4-7.6c-1.3,0.1-2.6,0.2-4.2,0.3
		c0.5-0.4,0.9-0.7,1.2-1c2.2-3.2,5.7-4.7,8.6-7.1c1.4-1.1,2.8-2.2,4.4-3.2c2-1.3,4.2-2.4,6.3-3.5c3.3-1.7,5.3-4.7,7.5-7.3
		c-1.4,0-2.9-0.1-4.3,0c-0.6,0-1.3,0.4-1.6,0.8c-1.6,2.2-1.5,2.2-4,1.4c0.2,3-2,3.8-4.1,4.6c-0.3,0.1-0.7,0.4-0.9,0.7
		c-2.5,3.6-6.2,4.6-10.3,5c-0.5,0-1,0.1-1.4,0c-1.9-0.1-3.6-0.1-4.8,1.9c-0.3,0.6-1.4,0.8-2.2,0.9c-1.4,0.2-2.9,0.2-4.3,0.3
		c-0.6,0-1.2,0.1-1.8,0.1c-0.1-0.1-0.1-0.2-0.2-0.3c1.2-1.4,2.4-2.7,3.5-4c-3.1,0.6-6.1,1.2-9.2,1.8c-0.5,0.1-1,0.4-1.4,0.7
		c-11.6,6.5-24.1,10.7-37.1,13.3c-7.9,1.6-15.9,2.3-24,2c-6.7-0.3-13.3,0.7-19.9,1.5c-6.7,0.8-13.5,1.7-20.3,1.9
		c-11.1,0.4-22.3,0.5-33.4,0.5c-2.9,0-5.9-0.5-8.8-0.8c-0.4,0-0.7-0.2-1.1-0.3c-1.9-0.5-3.3-2.5-5.6-1.7c0-0.2,0-0.4,0.1-0.6
		c3.4-0.8,6.8-1.6,10.3-2.3c0-0.1,0-0.3,0.1-0.4c-1.2-0.3-2.5-0.8-3.7-1c-13.6-2-27.4-2.4-41.2-2.2c-5,0.1-10.1,0.2-15.1,0.2
		c-0.5,0-0.9,0-1.4-0.1c0-0.1-0.1-0.3-0.1-0.4c2.1-0.7,4.2-1.3,6.4-2.1c-0.9-0.1-1.6-0.2-2.4-0.2c-2.4-0.1-4.5-1-6.2-2.7
		c-0.4-0.4-1.2-0.6-1.9-0.8c0.2,1.6,0.3,3.1,0.4,4.5c-0.2,0.1-0.5,0.2-0.7,0.2c-0.8-1.5-1.7-3.1-2.6-4.6c-0.2,0.2-0.4,0.3-0.7,0.5
		c-1.1-1.2-0.2-3.3-2.1-4.4c0,7.9,0,15.7,0,23.5c2,0.4,4.2,0.8,6.4,1.4c4.1,1.1,8.1,2.3,12.2,3.3c1.8,0.4,3.7,0.6,5.5,0.5
		c5.1-0.2,10,0.6,14.8,2.5c1,0.4,2.1,0.7,3.2,1.2c-2-0.2-3.9-0.4-5.9-0.6c-4.9-0.5-9.7-1.1-14.6-1.6c-5.5-0.6-10.9-1.4-16.4-1.9
		c-6-0.5-11.8-1.7-17.9-1.4c-3.7,0.2-7.4-0.1-11.1-0.5c-1.4-0.2-2.9-1.2-4-2.2c-1.4-1.1-1.4-2.6,0.1-4.1c-1-0.5-1.8-1-2.7-1.3
		c-4.9-1.4-9.7-2.9-14.6-4.1c-2-0.5-4.2-0.1-6.4-0.2c-4.3,0-8.6-0.1-12.8-0.1c-0.3,0-0.6,0-0.8-0.1c-0.4-0.4-0.9-0.8-1.1-1.3
		c-0.3-0.7,0.1-1.2,0.9-1.5c3.9-1.5,7.8-3.1,11.9-4.7c0-0.8,0-1.9,0-3c-3.8-1.2-7.2,1.1-11,0.6c2.4-1.9,4.8-3.7,7.3-5.6
		C7.1,151.8,5,151.9,3,152c0-0.2-0.1-0.3-0.1-0.5c0.4-0.5,0.8-1,1.2-1.6c0.6-1,1.2-1.9,1.3-3.3c0.1-1.2,1.6-2.4,2.6-3.6
		c0.4-0.5,0.9-1,1.2-1.7c-1.1,0.4-2.3,0.8-3.4,1.2c-0.1-0.1-0.1-0.1-0.2-0.2c1.4-1.8,2.9-3.7,4.3-5.5c0-0.1-0.1-0.2-0.1-0.3
		c-1.3,0.4-2.7,0.8-3.9,1.2c0.9-1.7,1.8-3.5,2.8-5.5c-0.7,0-1.1,0-1.6,0c0.9-2.9,4.3-4.3,4.7-8c-0.9,0.9-1.6,1.5-2.4,2.3
		c-0.4-0.1-1.2-0.2-2.2-0.3c0.7-1.3,1.5-2.6,2.3-4c0.2-0.4,0.9-0.9,0-1.4c0.5-0.8,1-1.6,1.6-2.4c0.1-0.2,0.4-0.3,1-0.6
		c-1.1-0.1-1.7-0.1-2.4-0.2c-0.1-0.1-0.2-0.3-0.3-0.4c1.4-1.9,2.8-3.7,4.3-5.7c-0.4-0.3-0.7-0.6-1-0.9c-0.7,0.7-1.2,1.3-1.8,1.9
		c-0.1-0.1-0.2-0.2-0.3-0.3c0.3-1.3,0.6-2.6,2.1-3.3c0.9-0.4,2.2-1,1.6-2.6c-0.1-0.3,0.4-0.9,0.7-1.5c-0.3-0.2-0.7-0.3-1.2-0.6
		c0.6-0.7,1.1-1.3,1.6-1.9c-1.4-0.6,0.2-1.3-0.3-2.1c-0.3,0-0.8,0-1.5-0.1c0.9-0.8,1.6-1.5,2.6-2.3c-0.7,0.1-1.2,0.1-1.9,0.2
		c0.6-0.7,1.2-1.4,1.9-2.2c-0.5,0.1-0.8,0.2-0.9,0.2c0.5-1.9,1.1-3.9,1.6-5.6c0.3,2.1-0.9,5,2.2,6.7c-0.8,0.2-1.3,0.3-2,0.5
		c0.8,0.6,1.4,1.2,2.1,1.7c-0.3,0.1-0.5,0.2-0.9,0.3c0.8,0.7,1.5,1.3,2.4,2c-0.8,0.3-1.4,0.5-2.2,0.8c0.8,1.5,1.5,2.9,2.4,4.4
		c-0.7-0.1-1.4-0.3-2.3-0.4c0.6,1.6,1.1,3,1.6,4.6c-0.6-0.1-1.2-0.2-1.7-0.3c-0.1,0.1-0.1,0.2-0.2,0.3c0.7,0.8,1.4,1.6,2.2,2.6
		c-0.7,0-1.3,0-2.2,0c0.9,1.5,0.8,2.8,0,4.1c-0.1,0.2,0,0.5,0.1,0.8c0.8,1.4,1.6,2.8,2.7,4.6c-1-0.5-1.6-0.8-2.2-1.2
		c-0.1,0.1-0.3,0.3-0.4,0.4c1.1,1.3,2.2,2.5,3.4,4c-0.7-0.1-1.2-0.1-1.7-0.1c0.2,0.7,0.4,1.3,0.6,2c-0.5-0.3-0.8-0.4-1.3-0.7
		c0.3,0.9,0.6,1.6,1,2.6c-0.7-0.4-1.2-0.7-2-1.2c0.8,1.3,1.3,2.3,1.8,3c-0.6,0.5-1.2,0.9-1.6,1.4c-0.6,0.8,0.2,1.2,0.5,1.8
		c0.4,1.2,1.7,0.8,2.4,1.6c0.8,0.9,1.7,1.8,2.7,2.8c-0.3,0.2-0.4,0.3-0.4,0.3c-1.4-1.5-2.9-0.3-4.4,0c0.9,3.5,4.3,5,6.7,7.6
		c-2.7-0.6-5.1-1.2-7.9-1.8c1.4,1.2,2.6,2.2,3.8,3.2c-0.4,0.1-0.6,0.2-1.2,0.4c1,0.6,1.9,1.6,2.6,1.6c1.5-0.2,2.4,0.4,3.4,1.3
		c0.4,0.4,0.9,0.7,1.8,1.3c-2.2,0-3.9,0-5.7,0c0,0.1,0,0.1,0,0.2c-1.8,0-3.7,0-5.6,0c0,1.6,0,3.4,0,5.3c1.8-0.2,3.6-0.5,5.4-0.6
		c2.2-0.2,4.5,0,6.7-0.5c2-0.4,4.3-0.7,5.9-2.3c0.5-0.5,1.3-0.7,1.6-0.9c-1.6,0.1-3.6,0.2-5.5,0.4c-0.1-0.2-0.1-0.4-0.2-0.6
		c1-0.4,1.9-0.9,2.9-1.3c0.8-0.4,1.7-0.7,2.8-1.2c-0.6-0.5-0.8-0.8-1.4-1.3c2-0.8,3.8-1.7,5.6-2.1c2-0.5,3.4-1.5,4.7-3.3
		c-0.9-0.2-1.7-0.6-2.5-0.6c-0.6,0-1.5,0.1-1.3,1.2c0,0.2-0.5,0.7-0.6,0.7c-1.3-0.6-2.3,0.4-3.5,0.7c-0.8,0.2-1.5,0.4-2.3,0.5
		c2.1-2.6,5.1-4,7.7-6c-1.1-0.4-0.9-1-0.3-1.5c0.8-0.7,1.7-1.2,2.6-1.8c0.9-0.6,1.9-1.2,2.9-1.8c-1.8-1.5-3.3-0.2-4.4,0.4
		c-1.5,0.9-2.5,0-3.8,0c2.5-2.5,5.9-3.2,8.8-5c-2.3-1-4.3-0.8-6.6,0.5c2.4-3,6.1-4.3,9.1-6.7c-1.1,0.5-2.2,0.9-3.4,1.3
		c-1.1,0.4-2.2,0.9-3.3,1.1c-0.5,0.1-1.3-0.4-1.7-0.9c-0.2-0.2,0.2-1.1,0.6-1.5c1.4-1.3,2.9-2.5,4.3-4.1c-1.3,0.3-2.7,0.7-4.2,1
		c2.6-1.8,5.1-3.4,7.6-5.1c-0.1-0.1-0.2-0.2-0.2-0.4c-1.7,0.2-3.3,0.3-5,0.5c0.9-0.8,1.9-1.6,2.8-2.5c0.4-0.4,1.3-0.5,1-1.4
		c0.6-0.2,1.2-0.5,1.8-0.6c1.2-0.3,2.5-0.6,3.7-0.9c0-0.2-0.1-0.3-0.1-0.5c-1,0.2-1.9,0.4-2.9,0.6c-0.1-0.1-0.1-0.2-0.2-0.3
		c0.7-0.6,1.4-1.3,2-1.9c-1.4,0.1-2.9,0.3-4.3,0.5c0-0.1-0.1-0.3-0.1-0.4c1.4-0.5,2.7-1,4.1-1.5c0-0.2-0.1-0.3-0.1-0.5
		c-2.8-0.5-5.7-0.9-8.5-1.4c-1.2-0.2-2-0.9-2-2.2c0-1.3,0.5-2.3,1.8-2.8c1-0.4,2.4-0.4,2.5-1.7c0.1-1.4-1.3-2-2.3-2.4
		c-3.2-1.2-6.5-2.3-9.8-3.4c-0.5-0.2-1.1-0.3-1.6-0.6c2.2,0.3,4.4,0.6,6.6,1c4,0.7,8,1.6,12.1,2c1.3,0.2,2.7-0.7,4.1-1.1
		c0-0.1-0.1-0.3-0.1-0.4c-0.3,0.1-0.6,0.1-0.9,0.2c0.1-0.5,0.3-1,0.4-1.7c-0.7,0.1-1.2,0.2-1.7,0.2c0-0.1-0.1-0.2-0.1-0.3
		c1.2-0.6,2.4-1.2,3.7-1.9c-0.4-0.4-0.7-0.6-1.1-0.9c1.7-1.3,3.2-2.6,4.8-3.9c0-0.1-0.1-0.2-0.1-0.3c-0.8,0.3-1.7,0.7-2.9,1.2
		c1.4-1.1,2.5-1.9,3.8-3c-1.2,0.1-2,0.2-2.8,0.2c-0.1-0.2-0.3-0.4-0.4-0.5c1.1-0.8,2.1-1.5,3.2-2.3c-0.1-0.1-0.2-0.3-0.3-0.4
		c-1.3,0.1-2.6,0.1-3.9,0.3c-2.1,0.4-3.9,1.6-4.7,3.6c-1.7,4.1-4.9,5.3-9.1,5.5c-4.5,0.2-9,0.8-13.4,1.6c-2.4,0.4-4.7,1.3-7,2
		c-0.3,0.1-0.6,0.3-0.8,0.3c-0.5-0.1-0.9-0.4-1.4-0.6c0.3-0.4,0.5-1.1,0.9-1.2c2.8-0.9,5.6-1.8,8.4-2.5c4.5-1.1,9.2-1.5,13.9-1.5
		c2.6,0,5-0.6,6.2-3.4c2-4.4,5.7-5.9,10.3-6.1c1.3,0,2.6-0.6,3.9-0.9c0-0.2-0.1-0.3-0.1-0.5c-0.3,0-0.6,0.1-0.9,0.1
		c0.2,0.2,0.5,0.4,0.7,0.6c1-1.2,2-2.4,3-3.5c-0.2-0.1-0.3-0.3-0.5-0.4c0.5,0.7,1,1.4,1.3,1.9c2-0.9,3.7-1.7,5.4-2.5
		c0.8-0.4,1.6-0.6,2.3-1.2C86,65.1,97.8,60,109,53.8c8-4.4,15.9-8.9,23.9-13.3c1.1-0.6,2-1.5,3-2.2c0.4-0.3,1.1-0.5,1.5-0.3
		c0.3,0.1,0.3,0.9,0.4,1.4c0.2,2.2,0.3,4.3,0.6,6.5c0,0.4,0.4,0.8,0.8,1.5c0.9-1.2,1.8-2.1,2.4-3.1c2.8-4.7,4.6-9.9,6.2-15.1
		c0.4-1.2,1-2.1,2-2.9c9.7-7.6,19.2-15.3,27.9-23.9c2.8-2.8,6.3-2.9,9.5-0.4c1.9,1.4,4.1,2.6,5.7,4.2c2,2,3.8,4.3,5.3,6.6
		c4.4,6.7,10.2,12,16.6,16.7c4.1,3,8.1,6.2,12.2,9.2c0.7,0.5,1.7,0.9,2.6,0.9c4.7,0,9.2,0.7,13.4,2.8c3,1.5,6.3,1.6,9.6,1.7
		c1.4,0.1,2.7,0.1,3.3,1.7c0.5,1.5-0.1,2.6-1.1,3.7c1.9,3.3,4.5,6,7.3,8.6c5.9,5.4,12.3,10.1,19.7,13.4c2.7,1.2,5.6,2,8.6,2.3
		c2.2,0.3,4.4,1.2,6.5,2.1c2.3,0.9,4.6,2.1,6.9,3.1c1.1,0.5,2.3,1,2.9,2.4c0.2,0.5,1.1,0.8,1.7,1.2c1.2-4.7,4.9-7.1,8.3-9.9
		c0.3-0.2,0.6-0.4,0.8-0.7c1.2-1.8,3-2.8,5-3.1c1.2-0.2,2.1-0.7,2.2-2.1c-0.3,0-0.6-0.1-0.9-0.1c-1.9-0.1-2.4-1-1.3-2.6
		c0.9-1.3,2-2.2,3.7-1.7c0.5,0.1,1,0.2,1.6,0.2c1.6,0.1,2.5-0.6,2.6-2.1c0.1-1-0.1-1.8-1.4-1.8c-0.8,0-1.7-0.4-2.8-0.7
		c1.4-1.2,2.4-2.1,3.5-3c-0.1-0.1-0.1-0.3-0.2-0.4c-3-0.2-5.3,2.4-8.7,2.2c0.6-0.9,1-1.8,1.6-2.3c2.1-2,4.3-3.9,6.3-6
		c1.9-1.9,4-3.6,4.7-6.5c0.2-0.7,1.2-1.1,1.9-1.8c-0.8-0.2-1.5-0.3-2.5-0.5c0.8-0.8,1.4-1.4,2.1-2c0.3-0.3,0.8-0.6,1.1-0.9
		c2.8-2.2,5.2-4.7,4.2-8.8c0.9,3.9,3.5,7,3.9,11.1c0.2,2.1,1.7,4.1,2.6,6.1c0.5,1.2,1,2.4,1.3,3.6c0.6,2.2-0.3,3-2.5,2.6
		c-0.3-0.1-0.6-0.1-1-0.1C344.5,51,344.4,51.2,344.3,51.3z M46.9,161.9c1.8,3.4,2,6.9,0.1,10.7c2.2,0.7,4.4,1.3,6.5,2.1
		c2.1,0.8,4.2,1.8,6.8,1c0-6.3,0-12.6,0-19.1c-0.8,1-1.6,2-2.6,3.3c0.4-1.9,0.6-3.5,0.9-5.1c-1.8,1.2-3.5,2.3-5.2,3.5
		c-0.1-0.1-0.2-0.2-0.2-0.3c0.2-0.5,0.5-1.1,0.9-1.9c-2.4,1.9-4.6,3.7-6.8,5.4c0.4-1.4,0.9-2.7,1.5-4.5c-2.1,0.9-3.9,1.7-5.8,2.5
		C44.4,160.4,45.6,161.2,46.9,161.9z M305.3,124.4c-1.7-0.3-3.5-0.6-5.5-0.9c6.1-5.6,14.1-7.2,20.9-11.5c-1.4,0-2.5-0.1-3.6,0
		c-0.9,0.1-2.1,0.1-2.7,0.7c-1.5,1.4-3.4,1.2-5.1,2c1.5-4,3.9-6.8,7.7-8.5c-0.7-0.1-1.3,0-1.9,0.2c-4.3,1.1-8.6,2.2-13,3.2
		c-0.5,0.1-1,0-1.4,0c0.1-0.5,0-1.2,0.3-1.6c1.4-2.2,3.1-4.2,5.5-5.5c2.6-1.4,5.1-2.9,8-4.5c-5.5-2.3-10.4-5.4-16.6-4.7
		c0.4,0.9,0.6,1.5,0.9,2.2c-0.5-0.1-0.7-0.1-0.9-0.1c-4.2-1.1-8.4-2.2-12.5-3.2c-4.3-1.1-8.6-2-12.5-4.2c-2.4-1.4-4.7-3-5.9-6.1
		c2.1-0.3,3.9-0.6,5.9-0.9c-0.5-0.3-0.9-0.6-1.3-0.9c-3.8-2.8-7.8-5.3-11.4-8.3c-4.4-3.6-7.2-8.1-6.7-14.2c0.1-1-0.4-2.1-0.5-3.2
		c-0.1-2-0.1-3.9-0.1-5.9c0-0.2,0.3-0.5,0.4-0.7c0.2-0.5,0.5-1.1,0.7-1.6c-0.6-0.2-1.1-0.4-1.7-0.4c-4.2,0.1-8.1-0.7-11.9-2.6
		c-1.3-0.7-2.8-1-4.1-1.4c-1.8,3.7-1,6.7,1.5,9.4c1.5,1.7,2.4,3.7,1.9,6c-0.7,2.9,0.7,4.8,2.7,6.6c1.4,1.2,2.8,2.3,4,3.6
		c1.9,1.9,2,3.9,0.8,6.2c-0.5,0.9-0.8,2.1-0.6,3.1c0.5,2.7,1.2,5.5,1.9,8.1c0.5,1.9,1.2,3.8,1.8,5.7c-0.4,0-0.5-0.1-0.6-0.2
		c-2.2-4.3-5-8.2-9-11.1c-1.4-1-1.9-2.2-1.6-3.8c0.6-2.9-0.1-5.4-1.8-7.7c-1.8-2.4-3.8-4.6-5.7-6.9c-1.8-2-3.7-4-5.4-6.1
		c-1.4-1.8-1.2-3.7-0.1-5.6c0.1-0.2,0.3-0.5,0.6-1c-4.4,2.3-8.7,3.6-13.2,4.2c-2.7,0.3-3.4,1.3-3.6,4c0,0.7-0.3,1.4-0.7,1.9
		c-1.5,1.8-3,3.5-4.7,5.3c0.9,0.8,1.9,1.5,2.7,2.3c2.7,3.2,6.2,5.3,9.9,7c3.1,1.4,6.3,2.9,9.3,4.6c2,1.1,3.6,2.9,4.4,5.1
		c1.7,4.1,4.4,7.4,8.2,9.5c5.3,3,10.9,5.4,16.3,8.1c0.9,0.5,1.8,1.1,2.9,1.8c-0.6,0.2-0.9,0.2-1.2,0.4c-0.4,0.3-1.1,0.6-1,0.9
		c0.1,0.5,0.5,1.1,0.9,1.5c0.3,0.3,0.8,0.3,1.2,0.3c2.2,0.3,4.4,0.8,5.5,2.8c1.3,2.4,3.6,3.5,5.8,4.6c6.9,3.1,13.6,6.7,19.6,11.4
		c0.6,0.5,1.2,1,1.8,1.6c-1.5-0.1-2.8-0.6-4.1-0.9c-5.4-1.1-10.8-2.2-16.2-3.1c-2.1-0.4-4.3-0.5-6.5-0.8c-0.9-0.1-1.8-0.2-2.7-0.3
		c0.2-0.8,0.3-1.6,0.7-2.3c0.6-1.1,0.2-1.5-0.7-2c-0.9-0.4-1.8-1-2.7-1.5c0.2-0.4,0.3-0.6,0.4-0.7c1.8-2.4,1.6-3.3-0.9-4.9
		c-1.9-1.2-3.7-2.4-5.5-3.7c-0.6-0.4-1.2-1-1.9-1.6c0.4-0.2,0.7-0.4,0.9-0.5c0.4-0.3,0.8-0.7,1.2-1.1c-0.4-0.3-0.8-0.7-1.3-0.9
		c-0.3-0.2-0.6-0.2-0.9-0.4c-3-1.4-5.9-2.7-9.1-4.2c0.2,2.1-0.3,3-1.9,3.6c-1.2,0.5-2.5,0.6-3.7,0.9c-0.9,0.2-1.8,0.4-2.8,0.6
		c4.9,3.1,9.5,6.4,13.6,10.2c3.2,3,6.2,6.2,7.8,10.4c1.8,4.5,1.1,8.3-2.8,11.5c-1.2,1-2.4,1.8-3.8,2.5c-7.3,3.7-15.2,4.8-23.2,5.7
		c-4.8,0.5-9.7,0.8-14.5,1c-4.4,0.2-8.9,0.2-13.3,0.1c-4-0.1-8-0.5-12-0.7c-0.1,0-0.2,0.1-0.4,0.2c0.3,0.3,0.6,0.5,0.9,0.7
		c-0.5,0.5-0.9,0.8-1.3,1.2c0.6,0.3,1.1,0.5,1.7,0.8c-0.5,0.4-0.9,0.7-1.3,1c0.3,0.2,0.5,0.4,0.7,0.6c-0.3,0.3-0.6,0.5-0.7,0.6
		c0.6,0.7,1.2,1.4,1.9,2.3c-0.7-0.2-1.1-0.4-1.8-0.6c0.6,0.9,1,1.5,1.5,2.2c-0.6-0.1-1.1-0.2-1.7-0.3c1,1.1,1.8,2.1,2.7,3.1
		c-0.4,0.4-0.7,0.7-1.1,1c0.5,0.4,1,0.9,1.5,1.2c-0.8,0.2-1.6,0.3-2.3,0.5c0,0.2,0,0.5,0,0.7c0.7,0,1.4,0.2,2.1,0.1
		c7.5-0.5,15-1.2,22.5-1.6c8-0.4,16-0.4,24-1c3.9-0.3,7.8-1.6,11.6-2.5c0.7-0.2,1.3-0.7,2-1.1c0-0.1-0.1-0.3-0.1-0.4
		c-0.5,0-1-0.1-1.5-0.1c-1.2-0.1-2.5-0.1-3.7-0.3c-0.5-0.1-0.9-0.4-1.3-0.7c0.4-0.4,0.6-0.9,1.1-1.2c1.1-0.5,2.2-1,3.3-1.3
		c3.4-0.8,6.9-1.5,10.2-2.3c6.3-1.6,12.6-3.4,18.9-5.1c0.4-0.1,1.1-0.4,1.1-0.5c-0.4-1.6,1.1-1.4,1.8-1.7c1.2-0.5,2.5-0.8,3.7-0.9
		c3.3-0.4,6.5-0.8,9.4-2.5c0.8-0.5,1.9-0.6,2.8-1.1c1.8-1.2,4.5-1.4,5.1-4.1c0-0.1,0.1-0.1,0.2-0.2
		C300.9,127.7,303.1,126.1,305.3,124.4c1.7-0.1,3.2-0.3,4.8-0.6c1.3-0.2,2.7-0.5,4-1c0.5-0.2,0.9-0.8,1.4-1.2
		c-2.7-1.6-5-1.8-7.2,0.4C307.3,122.8,306.3,123.6,305.3,124.4z M213.8,127.2c1.4-0.5,2.4-0.8,3.4-1.2c3.5-1.4,7.1-2.6,10.1-5.1
		c1.2-1,2.1-2.3,1.9-3.9c-0.3-2.6-1.4-4.8-3.4-6.6c-3.2-2.9-7.2-4.4-11.3-5.4c-3.4-0.8-6.8-1.2-10.2-1.8c-1.5-0.2-3.2-1.5-3.4-2.7
		c-0.2-1.6,1-2.4,2.2-2.8c1.6-0.6,3.3-1.1,5-1.4c3.8-0.7,7.6-1.5,11.1-3.5c2.1-1.2,2.3-2.2,0.6-3.9c-2.8-2.6-5.8-5.1-8.8-7.5
		c-2.8-2.2-5.7-4.2-8.5-6.4c-2.5-1.9-4.8-4-7.3-6c-2.4,1.5-5.1,1.9-7.8,2.4c-1.9,0.3-4,0.1-5.7,1.5c0.2,0.3,0.4,0.7,0.7,0.9
		c2,2.3,1.4,5.7-1.2,7.3c-1.3,0.8-2.6,1.6-4,2.2c-4.3,1.8-8.7,3.4-13.1,5.2c-1.3,0.5-2.5,1.3-3.7,2c-0.3,0.2-0.4,0.7-0.6,1
		c0.4,0.2,0.7,0.4,1.2,0.6c-0.1,0.4-0.3,0.9-0.4,1.4c0,0.4,0,0.9,0.3,1.2c1.9,2.3,1.1,4.7-1.8,5.4c-0.3,0.1-0.6,0.2-0.9,0.4
		c-3,1.4-6,2.9-9,4.3c0.5-1.3,1.2-2.5,2.1-3.5c2.1-2.3,4.5-4.4,4.5-7.9c-2.6,0-5.3,0-8.4,0c0.7-0.5,1.1-0.9,1.6-1.2
		c5.4-3.5,10.8-7,16.3-10.5c0.5-0.3,0.9-0.7,1.2-1.1c1.7-2.5,4.1-4.2,6.9-5.3c1.8-0.7,3.7-1.2,5.6-1.9c-1.2-0.1-2.3,0-3.5,0
		c-1.2,0-2.4,0.1-3.7-1.2c4.1-1.9,8-3.7,11.9-5.5c3.3-1.5,6.7-2.6,8.6-6.1c2-3.7,4.6-7,6.7-10.6c1.2-2.1,0.8-2.9-1.2-4.2
		c-1.6-1-3-2.3-4.5-3.4c-0.9-0.7-0.6-1.4,0.1-1.9c1.1-0.7,2.2-1.4,3.3-1.9c3.1-1.2,6.2-2.3,9.4-3.5c-0.4-0.8-0.7-1.6-1.1-2.4
		c-5.4-10-11.8-19.4-18.3-28.7c-1.8-2.6-5.4-2.8-7.6-0.6c-1,1-2,1.9-2.9,2.9c-0.5,0.6-1,1.4-1.2,2.1c-0.7,2.4-0.3,4.8,0.5,7.1
		c0.5,1.3,0.2,2.3-0.7,3.4c-1.3,1.5-2.5,3-3.7,4.5c-0.6,0.7-0.8,1.5-0.2,2.5c0.2,0.4,0.1,1.3-0.2,1.7c-0.7,0.9-1.5,1.6-2.4,2.3
		c-1.7,1.2-3,2.7-4,4.6c-1.2,2.2-2.5,4.3-3.7,6.3c0.4-2.2,0.6-4.6,1.2-6.8c0.9-3.2,1.1-7,5.1-8.4c0.1,0,0.1-0.2,0.1-0.3
		c-0.1-0.2-0.2-0.5-0.3-0.7c-0.9-1.2-0.7-2,0.7-2.9c1.7-1.2,3.1-2.8,4.7-4.2c-0.1-0.2-0.2-0.3-0.3-0.5c-1-0.1-2.2,0.1-2.8-0.4
		c-0.7-0.5-0.8-1.7-1.2-2.7c-0.3,0.2-0.5,0.4-0.8,0.6c-5.4,4.4-10.8,8.7-16.2,13.1c-0.5,0.4-0.9,1.2-1.2,1.8
		c-1.5,3.8-2.7,7.8-4.4,11.5c-1.1,2.4-2.7,4.5-4.2,6.8c-0.4,0.7-1.1,1.3-1.2,2c-0.5,3.7-0.9,7.3-1.2,11c-0.2,2-0.3,2.3-2.2,2.6
		c-2.3,0.4-4.3,1.1-5.2,3.6c-0.5,1.4-1.3,2.7-1.8,4c-2.1,6-5.4,11.1-10,15.4c-2,1.9-3.8,4.1-5.7,6.2c-1.3,1.4-2.6,2.8-3.8,4.2
		c1.2-3.1,2.8-6,4.1-8.9c3.1-6.7,7.3-12.9,8.2-20.5c0.5-4.6,3-8.6,5.2-12.6c1.7-3.1,3.4-6.2,5-9.3c0.4-0.9,0.6-1.9,0.9-2.8
		c-1.9,0.8-3.4,1.8-5,2.6c-11.3,6.1-22.6,12.2-33.8,18.3c-2.7,1.5-5.2,3.2-7.9,4.6c-2.7,1.4-4.8,3.5-7.1,5.3c-2.1,1.6-4.2,3-6.6,3.9
		c-1,0.4-1.9,1.1-3,1.7c1.5,1,2.7,1.9,3.9,2.8c0,0.1-0.1,0.2-0.1,0.3c-0.9-0.1-1.8-0.1-2.7-0.2c-0.1,0.1-0.1,0.2-0.2,0.3
		c0.8,0.5,1.6,1,2.5,1.6c-0.7,0-1.3,0-2.2,0c1.6,0.8,2.8,1.4,4,2.1c0,0.1-0.1,0.2-0.1,0.3c-0.9-0.2-1.8-0.3-2.7-0.5
		c0.2,0.7,0.4,1.3,0.7,2.1c-1,0-1.7,0-2.4,0c0,0.1,0,0.2-0.1,0.3c2.3,1.2,4.6,2.4,6.9,3.5c0,0.1-0.1,0.1-0.1,0.2
		c-1.3-0.1-2.6-0.2-3.9-0.4c0,0.1,0,0.2,0,0.4c1.4,0.7,2.8,1.3,4.4,2.1c-1.6,0.3-2.9,0.6-4.2,0.8c0,0.2,0,0.4,0,0.7
		c3.2,1.6,6.4,3.3,9.6,4.9c-0.1,0.2-0.1,0.3-0.2,0.5c-2.5,0.2-5.1,0.4-7.6,0.5c0,0.2-0.1,0.3-0.1,0.5c5.9,3.7,11.7,7.8,18.9,8.9
		c0.3,1.8-1.3,2.5-2.3,3.2c6.3,0.3,12.5,0.6,18.7,0.9c1.3-1.3,2.6-2.6,4-4c-0.4,0-0.8,0.1-1.7,0.1c1.2-1.1,2.2-1.9,3.1-2.8
		c0.9,2.3,0.8,4.4-0.3,5.6c1.4,0.7,2.7,2,4.4,0.8c-0.4-0.2-0.9-0.4-1.6-0.8c0.8-0.2,1.3-0.3,2-0.4c-0.6-0.4-1-0.7-1.5-1
		c0.5-0.2,0.8-0.4,1.2-0.6c-0.3-0.1-0.6-0.2-1-0.4c0.6-0.4,1-0.6,1.4-0.9c0.4,0.3,0.8,0.5,0.8,0.6c0.3,1.4,0.5,2.6,0.7,3.7
		c0.3,0,0.6,0,0.9,0.1c-0.5,0.6-1,1.2-1.6,1.8c0.1,0.1,0.2,0.2,0.3,0.3c0.6,0,1.1,0,1.9,0c-0.4-0.3-0.7-0.5-0.8-0.5
		c0.8-0.4,1.5-0.8,2.3-1.3c-0.1-0.1-0.2-0.1-0.2-0.2c0.2-0.4,0.4-0.7,0.6-1.2c-0.1-0.1-0.3-0.4-0.4-0.5c0.9-0.9,1.8-1.7,2.5-2.3
		c0.1,0.8,0.2,1.7,0.3,2.8c-0.1,0.1-0.4,0.2-0.9,0.5c0.7,0.3,1.2,0.5,2,0.8c-0.8,0.3-1.3,0.4-2,0.7c0.9,0.4,1.6,0.7,2.3,1
		c0,0.1,0,0.2,0,0.3c-0.7,0.2-1.5,0.3-2.2,0.5c0,0.1,0,0.2,0,0.2c1,0,2.1,0,3,0c0.5-1.1,1-2.1,1.5-3.2c0.1,0,0.3,0,0.4,0
		c0,0.6,0,1.1,0,1.7c0.4,0.3,0.8,0.6,1.3,0.9c-0.6,0.4-1,0.7-1.5,1c1.8,1.2,3.6,1.5,5.6,0.2c-0.3-0.4-0.6-0.8-0.8-1
		c0.4-1.3,0.8-2.4,1.2-3.6c0.5,1.2,1.8,2.2,0.7,3.8c-0.2,0.2,0.1,0.8,0.2,1.2c0.1,1.3,0.2,2.6,0.3,3.9c0.9,0.3,3.4-0.8,3.5-1.7
		c0.1-1.1,1.1-2.7,2-3.4c0.2,1.3,0.2,2.6,0.7,3.7c0.4,0.9,1.3,1.7,1.9,2.5c-0.3,0.2-0.7,0.4-1.3,0.8c1.7,0.2,3,0.3,4.7,0.4
		c-0.8-0.5-1.2-0.8-1.9-1.3c1.2-0.4,2.1-0.8,3.1-1.1c-0.4-0.2-0.7-0.4-1-0.5c0.4-0.8,0.8-1.5,1.2-2.2c-0.6-1.3-0.3-2.6,0.3-3.9
		c0.2,1.3,0,2.8,0.6,3.7c0.8,1.2,0.4,1.8-0.4,2.5c0.7,0.4,1.3,0.7,2.1,1.1c-0.6,0.2-1,0.4-1.5,0.5c0.7,0.3,1.7,0.5,1.7,0.7
		c0.1,1,0.8,0.7,1.3,0.7c5.1,0.1,10.3,0.3,15.4,0.4c1.9,0,3.8,0,5.8,0c0-0.1,0-0.2,0-0.3c-0.4-0.1-0.7-0.3-1.1-0.5
		c1-0.8,1.8-1.6,2.7-2.4c-0.2-0.2-0.4-0.5-0.7-0.7c0.1,0,0.3,0.1,0.4,0.1c0.7-1.4,1.4-2.9,2.3-4.5c-0.1,1.1-0.2,2.1-0.3,3.1
		c0.2,0.2,0.6,0.4,0.9,0.7c-0.6,0.3-1,0.5-1.5,0.7c2.7,2.6,2.9,3,2.3,4c3.4,0.7,6.9,1.2,9.9,3.1c-1,0.3-2,0.5-3,0.5
		c-1.7,0-3.4-0.1-5.1,0c-0.8,0-1.5,0.5-2.2,0.7c0,0.2,0,0.4,0,0.6c1.2,0.7,2.6,1.3,3.7,2.3c1.4,1.2,3,1.3,4.5,0.8
		c3.8-1,7.5-2.1,11.2-3.2c0.5-0.2,1-0.5,1.8-0.9c-1-0.3-1.6-0.5-2.3-0.7c0.6-0.6,1.4-1,1.6-1.6c0.4-1.2,0.6-2.5,0.9-3.8
		c2.2,1.4,2.4,3.2,0.7,4.8c1.8,1.3,4.6,0.6,6.6-1.8c-0.4-0.1-0.7-0.1-1.2-0.2c0.6-0.4,0.9-0.6,1.4-0.9c-0.5-0.1-0.8-0.2-1-0.2
		c1.3-1.4,2.5-2.8,3.9-4.3c0,0,0.3,0.1,0.5,0.2c-0.2,1.1-0.3,2-0.4,2.9c0.1,0,0.2,0,0.3,0c-0.3,0.3-0.6,0.5-0.8,0.8
		c0.7,0.3,1.2,0.6,1.9,1C214.5,126.6,214.3,126.8,213.8,127.2z M86.6,157.7c1.2,0.5,2.2,1.2,3.1,1.2c3.4,0.1,6.8,0.1,10.1-0.1
		c5.1-0.3,10.1-0.9,15.2-1.2c4.7-0.4,9.5-0.8,14.2-1c5.8-0.2,11.6-0.3,17.4-0.4c1.2,0,2.3,0.4,3.5,0.6c0,0.2,0.1,0.4,0.1,0.6
		c-0.6,0.3-1.2,0.8-1.9,0.9c-1.3,0.3-2.1,1.1-2.5,2.3c-0.7,1.9,0.1,2.7,2.1,2.9c2.6,0.2,4.4-1.2,6.8-2.7c-1.7-0.2-3.1-0.3-4.9-0.5
		c2.1-0.9,3.9-1.7,5.6-2.4c0-0.1-0.1-0.2-0.1-0.2c-1.1,0.2-2.1,0.4-3.2,0.6c0-0.1-0.1-0.2-0.1-0.3c1.6-1.3,3.1-2.6,4.8-4
		c-0.8,0-1.4,0-2.3,0c1.2-0.7,2.1-1.3,3.3-2c-1,0.2-1.6,0.3-2.3,0.4c-0.1-0.1-0.2-0.3-0.2-0.4c0.7-0.5,1.4-1.1,2.2-1.6
		c-0.1-0.1-0.1-0.2-0.2-0.2c-0.6,0.1-1.2,0.3-1.8,0.4c0-0.1,0-0.1-0.1-0.2c0.9-0.5,1.7-1,2.7-1.6c-0.6-0.1-0.9-0.1-1.6-0.2
		c0.9-0.9,1.5-1.6,2.3-2.4c-0.4-0.1-0.7-0.1-1.1-0.2c0.4-0.5,0.7-0.8,1.1-1.3c-0.5,0.1-0.9,0.1-1.3,0.2c0-0.1-0.1-0.2-0.1-0.3
		c0.7-0.4,1.4-0.9,2.1-1.3c-0.6-0.1-1.3-0.1-2.1-0.2c0.7-1.1,0.3-2.5,1.6-3.3c0.6-0.4,0.3-1.7-0.2-2c0.6-0.7,1.2-1.4,2.1-2.4
		c-0.9,0-1.3,0-1.9,0c0.8-0.9,1.5-1.7,2.2-2.5c-0.2-0.1-0.3-0.2-0.5-0.2c0.6-0.4,1.2-0.7,1.8-1.1c0-0.1-0.1-0.1-0.1-0.2
		c-0.2,0-0.5,0.1-0.6,0.1c0.5-0.9,1.1-1.8,1.7-2.8c-5.5-1.6-9.4-1.6-14.2,0.6c-2.8,1.3-5.6,2.4-8.7,2.3c-4-0.2-8.1,0-12.1,0.2
		c-8.7,0.4-17.4,0.6-26.1,0.3c-4.4-0.1-8.7,0.6-13.1,0.8c-1.6,0.1-3.2,1-4.8,1.6c-0.1,0-0.1,0.5-0.1,0.9c-2.8,0-5.6,0-8.1,0
		c3.9,1.7,7.9,3.5,12,5.3c-0.1,0.1-0.1,0.3-0.2,0.4c-1.7,0.3-3.5,0.7-5.2,1c0,0.2,0,0.4-0.1,0.6c1.1,0.6,2.3,1.2,3.5,1.9
		c-1,0.3-1.8,0.5-2.5,0.7c1.4,0.9,2.9,1.9,4.3,2.8c-0.1,0.2-0.2,0.3-0.2,0.5c-2.8-0.6-5.7-1.2-8.5-1.8c0,0.1,0,0.2-0.1,0.2
		c2,0.9,4,1.8,6.3,2.9c-1.5,0-2.8,0-4.2,0c2.3,0.5,4.5,0.9,6.6,1.5c1.7,0.5,3.1,1.4,3.7,3.2c0.1,0.3,0.2,0.8,0,0.9
		c-1,0.8-1.5,2.3-3.2,2C88.3,157.2,87.6,157.5,86.6,157.7z M331.7,157.3c-1.3,0.4-2.6,0.6-3.6,1.1c-1.2,0.6-2.2,1.4-3.2,2.2
		c-0.9,0.7-1.6,1.7-2.5,2.3c-1.1,0.7-2.3,1.1-3.4,1.7c-0.3,0.1-0.6,0.4-0.7,0.7c-0.4,1.5-1.3,2.5-2.9,2.9c-0.8,0.2-1.6,1.2-1.9,2.1
		c-0.2,0.5,0.7,1.4,1.2,1.9c0.5,0.5,1.2,0.7,1.8,1.1c2.7,1.4,1.8,3.8,0.2,5c-3.7,2.6-7.3,5.3-10.9,8c-0.6,0.5-1,1.3-1.5,1.9
		c0.8,0.2,1.6,0.5,2.4,0.5c5.5-0.1,10.9-0.2,16.4-0.3c3.1,0,3.1,0,4.3-2.9C331.1,176.6,330.9,167,331.7,157.3z M76.3,119.5
		c0,0.1,0,0.1,0,0.2c1.7,1,3.4,2,5.1,3c-1.5-0.1-3-0.3-4.4-0.4c-0.1,0.2-0.1,0.4-0.2,0.6c1.1,0.4,2.2,0.8,3.3,1.4
		c1.5,0.8,2.9,1.7,4.3,2.7c0.4,0.3,0.5,0.9,0.8,1.4c-0.5,0.2-1,0.6-1.5,0.7c-1.5,0.1-3-0.1-4.6,0c-0.9,0.1-1.8,0.4-2.7,0.6
		c0,0.1,0.1,0.3,0.1,0.4c0.8,0.3,1.6,0.6,2.8,1.1c-1.8,0.6-3.1,1.1-4.5,1.6c1.4,0.5,2.8,1.1,4.1,0.9c4.9-0.7,9.8-1.6,14.7-2.5
		c-1.6-1-1.6-1.5,0.1-2.5c0.4-0.3,0.9-0.4,1.4-0.6c5-1.4,10-2.8,15-4.3c0.6-0.2,1.1-0.5,1.7-0.8c-0.6-0.3-1.1-0.6-1.7-0.8
		c-7.6-2.5-15.3-3.4-23.3-3c-0.4,0-1,0-1.2,0.2c-1.5,1.3-3.2,1.1-4.9,0.9C79.2,120.1,77.7,119.8,76.3,119.5z M177.3,158.6
		c-1-0.1-1.9-0.2-3.1-0.3c0.8-0.5,1.4-0.8,2.2-1.3c-1-0.1-1.7-0.2-2.4-0.2c1-0.6,2-1.2,2.9-1.7c-0.1-0.1-0.1-0.2-0.2-0.3
		c-0.4,0-0.9-0.1-1.3-0.1c-0.1-0.1-0.1-0.2-0.2-0.4c1-0.8,2.1-1.6,3-2.4c-0.1,0-0.3-0.1-0.6-0.2c0.4-0.3,0.8-0.6,1.4-1
		c-1-0.1-1.7-0.1-2.6-0.2c1.3-0.9,2.3-1.6,3.6-2.5c-0.8-0.1-1.2-0.2-1.8-0.3c0.8-0.5,1.4-0.8,2.1-1.2c-0.6-0.1-1.1-0.2-1.8-0.3
		c1.1-1.1,2.1-2,3-3c-0.1-0.3-0.2-0.7-0.4-1c-2.2-0.4-4.5-0.7-6.8-2.1c2.3-1,4.3-1.9,6.4-2.8c-5.2-3.8-10.6-6.9-17-8.8
		c0.8,2.3,2.1,4,4.3,5.3c-1.2-0.3-2.1-0.5-2.9-0.7c0,0.2-0.1,0.3-0.1,0.5c0.6,0.3,1.2,0.5,1.8,0.8c0.5,0.3,1,0.6,1.5,0.9
		c0,0.1-0.1,0.1-0.1,0.2c-0.8-0.2-1.5-0.4-2.3-0.6c0,0.1-0.1,0.2-0.1,0.3c0.5,0.3,0.9,0.6,1.6,1c-0.5,0-0.8,0-1.3-0.1
		c1,0.6,1.8,1,2.5,1.4c0,0.1-0.1,0.1-0.1,0.2c-0.5-0.1-1-0.3-1.6-0.4c0,0.1-0.1,0.2-0.1,0.3c0.8,0.6,1.5,1.1,2.3,1.7
		c0,0.1-0.1,0.1-0.1,0.2c-0.4-0.2-0.8-0.3-1.3-0.5c0.6,2,2.5,2,4.1,3c-0.9,0.1-1.6,0.1-2.5,0.1c0.3,0.4,0.5,0.7,0.9,1.2
		c-0.9-0.2-1.5-0.3-2.4-0.5c0.7,0.6,1.2,1.1,2,1.9c-1,0-1.6,0-2.5,0c1,0.5,1.7,0.9,2.4,1.2c0,0.1-0.1,0.1-0.1,0.2
		c-0.4-0.1-0.8-0.2-1.4-0.4c0.7,0.8,1.3,1.3,1.6,1.9c0.3,0.5,0.4,1.2,0.6,1.7c-0.5-0.1-1.1-0.3-2.1-0.6c0.9,0.9,1.4,1.5,2.2,2.4
		c-1-0.3-1.7-0.6-2.4-0.8c-0.1,0.1-0.1,0.3-0.2,0.4c1.1,0.6,2.1,1.2,3.2,1.9c-0.3,0.2-0.6,0.5-0.9,0.7c0.6,0.2,1.2,0.4,2.1,0.8
		c-0.8,0-1.2,0-1.7,0c0.7,0.3,1.2,0.5,1.6,0.7c0,0.1,0,0.1-0.1,0.2c-0.4,0-0.7,0-1.1-0.1c0.8,0.7,1.5,1.3,2.3,2
		c-0.1,0.1-0.1,0.3-0.2,0.4c-1,0.1-1.9,0.1-2.9,0.2c0.9,0.6,1.7,1.2,2.8,1.9c-1.1-0.1-1.8-0.1-2.7-0.2
		C172.8,160.6,176.3,160.2,177.3,158.6z M314.5,132.5c-0.9,0.4-1.5,0.8-2.1,1c-2.9,1-5.9,1.8-8.8,2.9c-2,0.8-4.1,1.8-5.8,3.2
		c-1.9,1.4-1.8,3.5-0.1,5.2c0.2,0.2,0.6,0.4,0.8,0.4c2.8-0.5,5.6-1,7-3.7c1.2-2.2,2.7-3.5,5.2-4c0.6-0.1,1.2-0.9,1.7-1.5
		c0.6-0.8,0.9-1.8,1.5-2.5c0.8-1,1.9-1.7,2.8-2.6c0-0.1-0.1-0.3-0.1-0.4c-1.3,0.4-2.5,0.8-3.8,1.2
		C313.3,131.9,313.7,132.1,314.5,132.5z M351.2,112.3c1,1.9,4,3.1,6.8,2.6c-0.2-0.5-0.4-1.1-0.6-1.5c-1.2-1.8-2.6-3.5-3.8-5.3
		c-0.3-0.4-0.5-0.9-0.5-1.4c-0.1-1.2-1.1-2.1-2.3-2c-1.7,0.2-3.5,0.4-5,0.5c1.9,1.2,4,2.5,6,4c0.7,0.5,1,1.4,1.5,2.1
		C352.6,111.6,351.9,112,351.2,112.3z M318,82.9c-1.5-0.6-4.6,0.1-6.5,1.7c2.8,2.4,5.6,4.7,8.6,7.2c0.8-1.6,1.4-2.9,2.1-4.2
		c-1.6,0.9-2.8,0.2-4-0.6C316.4,85.9,318.1,84.4,318,82.9z M318.1,163.2c1.5-1.7,2.9-3.3,4.1-4.6c-0.6-0.1-1.5-0.3-2.4-0.4
		c-0.3,0-0.7,0-0.9,0.2c-0.6,0.9-1.2,1.8-1.6,2.8C317.2,161.6,317.8,162.3,318.1,163.2z M39.4,156.8c-2.8,0.7-5.8,1.3-8.8,2
		c2.5,0.3,4.9,0.4,7.4,0.3c0.4,0,1-0.4,1.2-0.8C39.4,157.8,39.3,157.1,39.4,156.8z M310.5,131.1c0.4-0.6,0.6-1,1-1.5
		c-1,0.2-1.8,0.4-3,0.7C309.4,130.6,309.9,130.8,310.5,131.1z"/>
</g>
</svg>
