<svg xmlns="http://www.w3.org/2000/svg" viewBox="0 0 433 183.6992"><defs><style>.cls-1{fill:#26382d;}</style></defs><title>Asset 1</title><g id="Layer_2" data-name="Layer 2"><g id="Layer_1-2" data-name="Layer 1"><path class="cls-1" d="M307.3311,183.6992h-6.52c.2517-1.6987.5979-3.3917.7281-5.0978.1253-1.6415.0271-3.2967.0271-4.9458-3.6559,4.7251-6.7106,5.2777-10.7148,6.5255-5.81,1.8107-7.3392-1.8282-10.4988-4.18l2.7787-1.5413c-3.5289,1.2867-7.5757-3.342-11.0049.9237,1.1291.2662,2.0086.4705,2.8862.6812.9742.2338,1.9467.4733,2.92.71a17.8,17.8,0,0,1-7.1164,2.9629c-2.5106.3432-5.1559-.1206-7.7437-.1863a3.656,3.656,0,0,0-1.2544.3332c-.8409.3051-1.7263.9987-2.49.8991-2.6476-.3454-5.2508-.962-7.9453-1.49.08.9961.179,2.2377.29,3.6219h-6.1608c.3419-2.33.6655-4.5342.9891-6.7388-7.139,6.3229-17.1428,6.1813-22.1142,1.2416-.8935,2.2687-2.7875,2.8887-4.6841,1.1926-1.4644-1.31-2.0889-1.0865-3.0642.265a3.4225,3.4225,0,0,1-1.7987.9729c-3.7277.99-6.1953-.8041-8.713-3.1325.206,2.0751.412,4.15.625,6.2952l-3.7467.6875h-2.898c.3453-2.2792.6905-4.5583,1.1038-7.2865-8.43,4.0963-16.3494,5.4506-24.5713.2966l.2122,4.1591h-6.06c.3459-2.0969.6715-4.07.997-6.0432-1.1651.0472-1.4519.214-1.6842.428-4.0726,3.7521-9.2729,4.2178-14.5866,3.5792-2.7625-.332-4.5945-3.14-8.4021-1.73-2.0537.7605-5.2425-.926-7.879-1.5v4.4675h-5.97c.3206-3.1156.6146-5.9732.9828-9.5519-2.2581,2.12-3.6434,3.4989-5.1216,4.7927-2.9186,2.5545-9.4059,3.1228-12.9664,1.3338-.58-.2915-1.6149.0286-2.4.2064-.6952.1575-1.4033.8251-1.9875.7237-2.8538-.4948-5.668-1.1718-8.4723-1.7792l.4629,4.2591H97.3874l.8009-4.6735c-4.529.7987-8.7915,1.9362-13.1222,2.2093-4.6234.2916-9.6494,1.79-14.058-2.6084l.6776,4.81H65.5135l.8788-6.6465c-4.3965,1.5821-6.247,4.7437-11.2747,4.7345a19.9677,19.9677,0,0,1-11.7275-3.68l-1.0537,3.6-9.7409-3.7418.4364,6.2023H26.7883l.9518-11.633-1.0059-.066c-.64,1.1091-1.1965,2.2654-1.9436,3.3135a13.9587,13.9587,0,0,1-2.4551,2.7583c-1.1954.9758-2.9546,2.6815-3.851,2.4142-2.1759-.6488-4.0555.109-6.0191-.0149-.9507-.06-1.794-1.2544-2.7234-1.8916-.5667-.3885-1.2046-.694-2.0453-1.17,1.4648-1.1771.0169-1.7678-1.8373-2.237l3.8547-2.7182c-4.0331,1.1951-7.143-.1329-7.8055-2.6438l-1.74.1787c.5343-6.031,5.4428-6.7779,11.3507-6.527l-1.8226-2.4645-1.7846,1.9236-5.1631-4.63.6974-.6233-3.4275-.2194,3.4469-4.0262,5.691-.4712-6.1615-6.3154,4.2085-3.3437c-4.2572-.81-5.4149-2.531-4.4729-6.3906a12.289,12.289,0,0,1-1.5261-.7725A10.3431,10.3431,0,0,1,0,131.5568c1.128-.3461,2.3979-.3814,2.8473-.9418a4.27,4.27,0,0,1,4.5876-1.4935c3.8179,1.3058,5.3756-.7694,7.5983-2.9769-2.2946-.2458-4.9538-2.857-10.2052-9.5157,4.9658.5059,10.05,1.581,14.4512-2.4371-3.0228-1.3818-5.8337-2.61-8.58-3.9438A16.99,16.99,0,0,1,6.0581,107.52c-.6881-.6917-.294-2.2429-.4266-3.9048l11.7977-1.8769-2.2958-1.8067,6.1854-4.2136c-3.1441-.5009-5.3153,2.417-8.0251.6589-2.1124-1.37-3.7544-3.32-5.9267-5.3054,3.2867-1.5958,6.1069-2.6327,8.4421-4.2339,1.24-.85,1.64-2.68,2.4187-4.0673l-1.4731-.8974L15.7241,84.42,9.59,77.2673l6.838-.4446-5.9739-7.8889,10.9613-1.7511L10.7048,55.5084l5.3063-.8829-.2534-2.8476,2.2551-.2833L14.74,44.325,22.6949,43.08l.4411,1.0353,3.7785-4.27a45.1034,45.1034,0,0,0-4.9466,1.5141c-1.3072.3476-1.8252-1.2014-2.9073-1.6876-2.2862-1.0273-3.7355-3.5412-5.4293-5.34L17.015,31.52l2.9644,2.509.497-.9317a6.0326,6.0326,0,0,1,1.9376.59c2.1187,1.6547,3.8012,1.4787,5.3158-.235l-7.62-4.4c.2915-1.1731.9774-2.4315.81-3.5915a41.7449,41.7449,0,0,0-1.7069-5.9335l.7225-.2787,3.9492,3.2207L23.5249,17.75l1.1545-.2755-1.9969-8.342,3.1856.3273.705,2.9807.8-.1756L25.46,4.779l2.1853,1.0171V.0407L28.1776,0,28.82,3.9684l2.0744-.809-2.8218,9.1957L32.77,7.8881l.6084,4.83-2.452.2219,2.2589,3.5562-4.417.1769.5069,8.2564c3.5448-2.6889,2.0458-7.75,6.9659-8.7628l.7555,9.45-2.982,2.2691L36.23,29.6852l-1.2493,2.14,6.23,6.4964-5.321,2.614-1.7737-2.4712-.6645,2.2723-1.7331-1.342a6.3505,6.3505,0,0,0,1.8243,4.5212c.47.4164,2.5324-.6016,4.0867-1.0252a10.8013,10.8013,0,0,0,2.8468,1.93,28.2552,28.2552,0,0,0,5.2123.6164l-5.6735,6.2706-1.9571-1.1011-.41,2.2269-4.0334-1.4979-.663.9492c2.0239,1.17,5.2844,3.7029,5.8642,3.2827,3.0058-2.1784,5.06-.1139,7.5352.1636l-6.4687,8.238-6.6759-1.0984c2.1707,4.1942,4.8973,5.2683,8.7631,3.5592.0929.747.18,1.449.1561,1.2551l6.22,2.023c-1.3466,2.8132-2.43,5.077-3.5955,7.5114l-7.7638,1.4981c2.05,3.5341,3.8765,3.8665,7.9528,1.323l.7446,2.5246c1.6555.0879,3.253.5325,3.9928,1.5.4588.6-.062,2.213-.7161,2.9825-1.0313,1.2134-3.8329,2.3954-3.6375,3.0751,1.0025,3.4883-1.9293,2.9824-4.1481,3.7508a7.574,7.574,0,0,0,3.4583,1.56,35.8711,35.8711,0,0,0,4.9937-.1472c-.8868,2.0026-1.7064,3.8532-2.7054,6.109,1.311,1.8461,3.0681.345,4.8811-.3041A28.3481,28.3481,0,0,1,57.5448,99.45c5.6086-.7385,5.623-.6515,7.5781-2.7354-5.74,3.01-8.7851-1.0063-13.1121-2.8106,2.2142-.8235,3.3881-1.9759,5.86-.7849,2.213,1.0663,5.35.6025,8.0788.8138l.0422-.7054-6.3612-2.2343-1.4837-6.1489,4.9039,1.9921L61.9239,78.677l4.0948,1.9413-1.04-2.3949,1.4544-4.3582,2.5824,2.504-1.8845,3.9545,3.8044-1.5092c-.0215,1.1806.3319,2.5189-.1812,3.4928-.4219.8008-1.8723,1.1691-3.3036,1.9751l.3876,4.1483,6.4087-5.7865.7633.46c-.7811,2.3376,3.0482,5.591-2.6746,7.1132l6.8064,6.1674-3.8116,1.2145-.0977.975,8.0637,1.99.2478.9491-9.7882,3.5511c2.5639,1.7226,4.7572,1.8443,9.2654.2866l-1.0672-2.3422,8.786-.9607.2988-1.0164L81.4936,93.93l5.186-.8722L86.53,91.2658l3.271-.221-5.8855-3.4693,1.2368-1.3442c1.334-.21,2.6761-.3871,4.0005-.6379,2.907-.55,6.6545,1.02,8.5169-3.3072-6.2563,4.2349-9.1915-1.0471-13.5268-2.9231l2.8279-1.5978,10.97,1.7636.1577-.9364L91.5522,75.83c-.4382-2.429-.8456-4.687-1.2929-7.1661l4.8266,2.4131c-.4054-3.5562-.72-6.3135-1.0332-9.0633l2.3831-.245.9874,2.5422.7455-.2251-2.0138-5.3436,1.7435.5818L98.401,55.69l.61-.01.6769,2.8394,1.9524-1.0157L99.1451,63.48l4.18-2.3455c.35,1.3955.5612,2.2357.7688,3.0772q-.8885.2913-1.763.5777c.5667.96,1.0127,1.7153,1.4588,2.47-1.2878-.1253-2.5757-.25-4.414-.4286l.6346,5.4158,1.1872.2146q1.2638-2.6433,2.5276-5.2865L107.33,66.75c-1.3122,2.5592,2.8678,6.28-2.8568,8.1743l7.3164,7.79-11.0254.5474c2.38,1.1674,4.1316,2.7484,5.265,2.45,3.7059-.9741,6.3077,1.3066,9.5733,1.2632l.1951,1.28L104.7492,92.63c1.9086.4733,4.0952,1.679,5.1,1.1367,2.7015-1.4579,4.7188.1359,6.1869.1639l-6.3352,4.7478,1.1523,1.1483a28.338,28.338,0,0,0-3.367-.6794,25.2536,25.2536,0,0,0-3.2914.1207l-.203,1.0823c3.5419.7764,7.0538,1.9848,10.636,2.1839,2.5782.1434,5.25-1.059,7.7854-1.6394l-5.468-5.6677,10.8859-1.4927-10.7495-8.83,5.423-.6721-.2639-2.0514,2.75-.3492-5.15-5.4381,9.3574-.8738.263.8072,3.3274-2.8447c-6.608,3.006-8.6726-2.9441-12.886-4.5028l2.9854-1.9694c2.2141.4382,4.1389.52,5.7341,1.21,2.043.8837,3.7576,1.5748,5.4689-.1816l-6.8179-2.9735c-.4345-2.8-.8078-5.2059-1.2424-8.0063l3.9062,2.3557c.3574-1.5216.63-2.682.9974-4.2467l-1.7688-5.4552.551-.5721,3.9645,2.5216c-.5013-1.5608-1.1-3.4245-1.7221-5.3614l1.8077.4625.5-3.7865.5047.0131.4311,2.7321,1.8935-.2714-2.3592,6.3734,4.4871-3.2276c.2525,1.531.421,2.5527.5875,3.5708-.731.121-1.46.2455-2.18.3683l1.7488,2.5651-4.2375.3574c.19,1.9656.3749,3.8711.6155,6.3552l6.2083-7.42.9448.4549c-1.0971,2.9338,2.9517,6.713-2.3775,9.0956l1.993,1.21-1.009,1.822,5.9484,4.7033c-.9077.548-1.4535,1.1457-2.0507,1.19-2.1678.16-4.3542.11-6.53.201-.4472.0187-1.2479.2884-1.2589.4722-.0607,1.02,3.3755,2.7516,4.49,2.4416,3.2015-.891,6.0182.7816,9.0057,1.2736.5878.0968.9514,1.28,1.6626,2.3182a9.46,9.46,0,0,0-1.0038,1.372,18.5014,18.5014,0,0,0-.8916,2.4426c2.6812-2.3156,2.6812-2.3156,3.9071,1.821-1.0878.3786-2.1749.7565-3.4164,1.1881l.4553,3.29,7.0839-5.3121c-.4567,3.168,2.8081,6.0508-2.3062,6.8818l-.2386.8785q3.6928,1.857,7.3711,3.7236c-2.0157,2.2733-4.5181,2.3622-7.4434,1.2865l-.9216,2.4484h9.2429l-.9014-3.7274,4.6893,1.3957c-.4457-2.58-.8018-4.6412-1.2456-7.21l4.1967,1.8052-1.35-2.7561,1.95-2.8719,2.4707,1.7342-2.1655,3.78,4.1095-1.7655c1.9736,1.5908-1.72,3.09.5788,4.4333h-4.371l.7186,3.9218,1.1218.2692q1.2282-2.13,2.4565-4.2589l3.5669-.1542c-.903,1.8966,2.579,4.929-1.6517,5.8636l1.0159,2.8406c3.3647-1.625,6.8176-3.1071,10.0059-4.9538.8715-.5049.9489-2.1042,1.3908-3.2013l-.8032-.253-1.9381,1.2456-5.5242-5.879,6.6485-.461-5.82-7.0489,10.7989-1.7968L183.81,69.9957l5.3937-.73c-.0759-.6372-.1844-1.5474-.3115-2.6144l2.9838-.2384L186.5533,59.96l9.4162-1.1672.3209.9045,3.5749-3.6282c-2.1093-1.7871-4.271,4.04-6.2327-.3655-3.8792.05-4.052-3.8907-7.1487-4.676l3.714-2.6811,2.9843,2.3583.7965-1.382c4.0585,2.48,5.6754,2.4765,6.4324.5226l-7.2-3.84c.2615-.9561.938-2.0837.7676-3.0976a49.8222,49.8222,0,0,0-2.0031-6.3859l4.5419,3.1032c.3378-1.7762.6122-3.219.9173-4.8235-.52-2.0819-1.1054-4.4258-1.7-6.8082l3.0753.1359.8576,2.9644.7745-.1858L198.4,23.8569l1.78.8514c.22-1.7379.4095-3.2368.5991-4.7358l.6265.0541.2987,3.5224,2.1425-.906L201.19,30.674l4.738-4.0855c.1486,1.9122.2493,3.2076.36,4.6275l-2.13.2888,2.031,3.105-4.4719.1988.5848,7.0593.8849.1947a33.1672,33.1672,0,0,1,2.4569-4.79,26.239,26.239,0,0,1,3.6636-3.43c.2316,3.1489.4237,5.7622.6652,9.0465l-2.8311,2.0713,2.1818,1.6476-1.2365,1.9235,6.2634,5.974L209.022,56.71l-1.335-1.5247a15.5925,15.5925,0,0,1-1.962.8283,5.8232,5.8232,0,0,1-1.3753.0268,5.1148,5.1148,0,0,0,.4623,1.1748,4.159,4.159,0,0,0,1.2682,1.3769c.7618.407,2.1661,1.0227,2.4572.772,1.7028-1.4665,2.8211-1.1348,3.9485.5087.1865.2717.8974.2836,1.3768.3625,1.4751.2425,2.9556.4593,4.4339.6861l-.0418.9445c-2.8982.5448-2.6233,5.3725-7.0426,3.8658-.15.6079-.2995,1.2162-.4506,1.833l-4.6629-1.5493c1.747,2.4713,3.93,5.0586,5.9428,4.0083,3-1.5653,4.9695-.2061,7.57.0121-2.2678,2.6925-4.3427,5.156-6.53,7.7531a23.5759,23.5759,0,0,0-3.1744-.8359,28.2671,28.2671,0,0,0-3.6137-.0335c3.146,3.7835,5.1177,4.463,8.8576,3.1691q.2184.9695.4345,1.9366l.6418-.84,5.2286,1.7287-3.3175,6.74-7.9316,1.3714c2.43,3.3039,4.1831,3.5407,7.1729,1.4864a18.0928,18.0928,0,0,1,3.5972,1.9072,30.181,30.181,0,0,1,3.1955,4.0593l4.21-1.9891-3.069-3.3392,6.7141-1.4877-7.1194-3.8406c4.2013-3.0678,8.4626.1227,12.6792-.427l-5.6138-2.2576c-.4407-1.9518-.83-3.6775-1.2656-5.6061l4.5568,1.6263c-.3446-2.4593-.628-4.4808-.9118-6.5056,1.841-.0306,3.9546.0727,1.7154-3.02,4.2013,2.0335,1.5872-1.7094,2.9011-1.9515l3.2417,2.42L240.27,75.41l5.23-1.795c-.83,1.6988-1.91,2.8349-1.6233,3.5068,1.2878,3.0238,2.1438.9939,2.9272-.301l2.614,2.1289-1.3549,2.9846c1.25-.0836,2.2943-.1535,3.3375-.2215.2168.7342.4351,1.4666.6509,2.1907l-1.9728.3451.1.8264,6.2209-.3121-.3671-.53,2.8447-1.9949-3.9521-3.1757c3.548-3.1286,8.6275.4089,11.78-3.3875-4.7369.351-4.7369.351-12.31-3.7829l3.1119-1.8546c3.7969,2.058,8.3222,2.4486,10.3609,1.0516l-6.4055-2.3482c-.4288-2.2981-.7883-4.2249-1.1872-6.3624l3.845,1.5284c1.4119-2.9293.3306-5.3261-.746-7.6916l3.4292-.51-.6882-2.5705,1.8345.6217c.1611-1.292.2961-2.3739.4313-3.459l2.4925,3.0611-1.8269,4.1687,4.2519-2.1832c.2838,1.2517.4486,1.9787.6229,2.7473l-2.035.2659,1.4409,2.2565-3.9063.279.3783,5.1595,6.3893-6.1062c.1231,2.9224,3.8934,6.2453-1.6909,7.827l2.1681,1.0394L275.62,70.39l6.425,4.0921a43.12,43.12,0,0,1-5.813,1.2116,26.1662,26.1662,0,0,1-4.6278-.5126c1.9931,1.5083,3.5934,4.2129,6.3939,1.8952.0592-.049.3969.2364.6235.2729,2.42.39,4.8436.7616,7.2656,1.14-2.6846,3.8874-6.7536,4.9094-11.7,4.7337a15.632,15.632,0,0,0,5.68,1.9049,53.7571,53.7571,0,0,0,7.308-.3883c-3.92,4.1722-7.4792,6.9514-13.3182,5.6052a29.1451,29.1451,0,0,0,7.0959,2.0868c2.1107.4061,4.237.7472,6.5882,1.1573l-2.28-4.2752L295.007,87.84c-1.9-2.0849-3.2226-3.6246-4.6522-5.0805-1.4339-1.46-2.9744-2.8372-4.4682-4.2506a3.8561,3.8561,0,0,1-.61-.1835c-.0747-.0355-.0815-.1852-.1193-.2829l4.9623-1.0261c-.6893-1.8416-.1645-3.0935,3.1294-2.3917-1.1825-1.1734-2.3175-1.7614-3.0654-2.6189a22.7237,22.7237,0,0,1-2.1053-3.6161l8.9288-.8826.247.8638,3.9487-3.7019c-2.47.4717-4.7246,1.5848-5.9056.9916-2.82-1.4164-5.1336-3.6373-7.68-5.5546l3.5986-2.3338c3.5122,2.5231,8.5469,3.1618,10.1333,1.4l-6.9536-3.47c.25-1.0264.8288-2.0615.6556-2.9839a48.8814,48.8814,0,0,0-1.8858-5.856l4.46,2.65c.3746-1.59.6814-2.8913,1.0733-4.5545-.5011-1.6553-1.1466-3.788-1.8119-5.9856l3.0067-.2173c.3047.9277.66,2.0093,1.0153,3.0908l.7545-.197c-.7338-2.2888-1.4675-4.5775-2.294-7.1558l2.0773,1.493c.0976-1.8175.1794-3.3415.2612-4.8655l.6224-.0492.8282,3.5764,1.9519-1.2195c-.9025,2.6286-1.6934,4.9318-2.5043,7.2934,1.61-1.1466,2.8661-2.0419,4.1073-2.926.3979,1.6068.6741,2.7217.9679,3.9078l-2.3265.4267,1.8653,2.802-4.3283.2832c.1568,2.0982.317,4.242.4773,6.3859l1.035.1677a26.3262,26.3262,0,0,1,2.3568-4.5075,21.9507,21.9507,0,0,1,3.7055-3.0487l.6443,8.4163-2.96,2.0762,2.1226,1.3626-1.4241,2.5189,7.2531,4.6017-5.9805,2.4183-1.1451-1.239-4.45.9029c2.5536,1.1207,3.8211,4.61,7.1193,1.8974.0919-.0757.9939.7006,1.5671,1.0065a5.8481,5.8481,0,0,0,1.7064.68c1.3622.2324,2.749.35,4.8125.5958-2.2759,2.1823-3.6141,4.273-5.6165,5.1425-1.7591.7638-4.2624.16-6.437.16l-.4334.8206c2.0227.8384,4.82,2.86,5.918,2.2858,2.8947-1.5122,4.79.0631,7.2753.3033l-6.5062,7.11a10.33,10.33,0,0,0-6.4971-.77c3.24,3.5229,4.4382,3.9474,7.118,3.2729l7.6429,2.24c-1.6475,5.4943-5.2653,7.9695-11.4043,7.2684,2.7986,3.3656,4.3117,3.605,7.3941,1.8239,1.1319.5744,2.09,1.0564,3.043,1.5455,1.0786.5534,2.1531,1.1132,4.0561,2.0981-2.2932,1.643-5.4921,2.9087-5.4641,4.1145.0733,3.15-2.4713,2.8727-4.4615,3.5491l.1393.862,8.1226.6419c-.7628,1.4483-1.5786,2.9969-2.6994,5.1248a13.6656,13.6656,0,0,0,3.5865-.1c.49-.1374.6-1.3586,1.0221-2.45l7.7752-.8227.3342-1.0073-9.1556-6.0725,5.0592-.9021-.36-.6954,2.6128-1.33-4.4651-3.5474a34.4027,34.4027,0,0,1,3.3534-.9813c.5444-.0955,1.1629.1927,1.7284.14,5.53-.517,5.5288-.5271,7.5967-2.8018-6.0859,3.13-8.9668-1.1646-13.1083-3.0207,1.5926-.5733,2.8964-1.486,4.0728-1.37,2.1642.2139,4.2256,1.1543,6.3852,1.5508a15.7464,15.7464,0,0,0,3.6-.1594l-.0754-.5113-6.3244-2.385c-.5892-2.4043-1.0405-4.2462-1.5462-6.31l4.8,2.0063c-.3958-3.0876-.7015-5.4724-1.0887-8.4934l4.1577,2.2058q-.7918-1.9136-1.5806-3.8194c.5071-.3148,1.289-.55,1.5366-1.0127a8.3805,8.3805,0,0,0,.5274-2.34l.488.0236c.1669.7866.3339,1.5732.504,2.3743l1.9348-.5083-2.4545,5.1688,4.4424-2.3858c.2058,1.1422.352,1.9536.4985,2.766-.5877.1312-1.1756.2612-1.8438.4091l1.4167,1.96-4.2053.392.7709,4.7783c2.4418-2.21,4.4225-4.0029,6.7294-6.0911.9229,2.769,5.3781,2.78,9.0832.5478l-9.645-7.226,5.2611-.81c-.0584-.392-.1582-1.0629-.2655-1.7837l2.8591-.3083-5.19-4.8948,9.3218-.93.2382.8382,4.094-3.1929c-6.3183,3.6313-9.2445-1.6663-13.5328-3.5906,1.3669-.8111,2.4536-1.4561,3.53-2.0947,3.3425,2.2219,8.3736,2.69,10.2267,1.1556l-6.3312-2.5222c-.5426-2.7886-.9509-4.8873-1.4034-7.213l4.746,2.2086c-.4433-3.591-.7892-6.3927-1.1122-9.0087l3.125-.3963c-.3416-1.0841-.5926-1.8807-.87-2.76l1.8844.3683.3763-3.4325,2.5795,3.0738L366.497,44.853l4.72-3.178.3432,3.4565-2.0637.2411,1.6792,2.3371-4.1485.421c.18,1.7964.3471,3.4605.572,5.7027l6.2208-6.72.9008.4686c-.9989,2.674,3.0478,6.2377-2.4146,8.1454l2.1105,1.2461-1.4612,2.2729,7.9011,1.9958c-.818-2.6143-1.3416-4.6786,2.65-3.3846l-5.5839-7.3029,9.3807-.954.2471.9272c.7394-.7,1.5172-1.3708,2.2075-2.1072.727-.7755,1.37-1.6135,2.36-2.7931-3.5351,1.5649-7.5655,1.9-8.7494.7719-1.7605-1.6769-3.3925-3.4615-5.0944-5.2159l2.7-2.2138c2.1819.5188,4.1725.661,5.7724,1.442,3.2208,1.5724,4.498,1.5211,5.07-.3046l-6.9434-3.8811c.246-1.3254.7673-2.4808.59-3.5432a46.3717,46.3717,0,0,0-1.6163-5.6039l.73-.2106,4.0956,2.8974c-.2887-2.1-.455-3.31-.6107-4.4424l1.2726-.231c-.7587-2.83-1.4448-5.3889-2.14-7.9825l3.2692.22c.1748.8857.3522,1.7843.5295,2.6829l.9543-.243c-.6669-2.2929-1.3339-4.5859-2.132-7.33l2.3186,1.8661V8.3746l.5994-.028c.2625,1.3021.525,2.6043.7952,3.9449l1.9559-.9638-2.7029,8.558L397.312,15.96c.2895,1.8808.49,3.182.7,4.5467l-2.5525.222,2.2443,3.3669-3.94.2929V32.14c3.6548-2.38,2.1757-7.5648,7.3881-8.3615-.1421,2.1944-1.3379,5.0722-.2179,6.5041,2.5891,3.31-1.23,3.2265-2.3546,4.792l2.1762,1.7091-1.2271,2.027,6.2754,6.2466-5.3824,2.4177-1.0794-1.5293-4.8034,1.2787c1.4847.5441,2.8279.763,2.8615,1.09.5215,5.0648,2.7437,1.2875,3.7542.9176l8.7467,2.9565-5.3679,5.5052L402.8541,56.8l-.808,1.95-4.6239-1.6362c1.7963,2.6071,3.75,5.4264,6.1335,4.2772,3.0324-1.4622,4.93.036,7.366.1454l-6.5791,8.15a16.6867,16.6867,0,0,0-3.1524-1.038,18.7943,18.7943,0,0,0-3.5239.1433c3.0937,3.8946,5.1117,4.6328,8.7409,3.1542l.5982,2.597c2.9786-3.0272,3.9705.2051,5.7269.7535-1.1693,2.3645-2.2383,4.5264-3.3295,6.7331l-7.8267,1.5785c2.3108,3.2563,3.9948,3.5642,6.9476,1.8881A16.4635,16.4635,0,0,1,412.199,87.01c.9853.766,2.5137,2.3719,2.2318,2.8168-1.9656,3.1028-4.3393,5.999-6.7311,9.158l6.2127.6717c-.606,1.9251-1.2338,3.919-2.0488,6.5077l6.4769-1.6176-2.6263,7.8295,2.8585.3527c-.1046.816-.1921,1.4991-.3039,2.3713l4.2259-.53c-1.488,1.9046-2.5435,3.2557-3.638,4.6565l2.1386,1.2919-2.6192,2.7061c1.0209,3.8519,4.152,2.472,5.9441,2.4508-.327,1.6832-.6347,3.2672-1.0433,5.3709l-3.1822,1.8476,2.2464.7431-2.7833,3.4417,7.1043-.6629-3.3088,5.1729,7.52.4545-7.6127,4.517,9.54,1.8873a16.6351,16.6351,0,0,1-2.7563,2.7717,22.3688,22.3688,0,0,1-4.4832,1.9324,38.1094,38.1094,0,0,1-3.8758.9062l.4261.4914L433,156.8154l-.2178.7268-11.1987,4.26q.097.7724.194,1.5446c1.7905.1469,3.8029.8266,5.3219.3216,2.58-.8577,3.6144-.028,3.9856,1.9309a3.2155,3.2155,0,0,1-.9381,2.3739,40.43,40.43,0,0,1-3.6737,3.1783l5.4961,1.1274.19.8912a116.8944,116.8944,0,0,1-11.4159,2.5214c-4.2251.5272-8.55.4165-13.1492.5963-1.505,2.9391-4.9506,1.1483-7.3195,1.483-.84-1.5109-1.5366-2.7644-2.2333-4.018l-.9725.3518.5688,6.4369h-6.2916a6.7558,6.7558,0,0,1,.0142-1.464c.7378-2.8728-.6856-3.8819-3.6628-3.2108-1.3785.3107-2.5729,1.2664-3.9507,1.59-1.1374.2669-2.4931-.2035-3.627.0688-2.7555.6616-5.523-.5412-6.1821-2.8936l-2.0454.6393.937-2.8711-5.8688,1.3158.0555,1.0262,5.8559,1.3245.1329,1.0059c-3.7335.9668-7.4344,2.52-11.2122,2.6874-2.3847.1056-4.6379-.1413-7.17.3493-2.5338.4908-5.4956-.7814-8.4-1.3043.0495.707.1426,2.0354.2481,3.54h-6.0635c.27-2.3589.5272-4.6077.7844-6.8566-4.067,2.7511-7.4016,5.5057-12.3074,4.8642-3.107-.4063-6.6589,1.1-9.357-1.59-.2486-.2478-1.5674.2649-2.33.5512-.8251.31-1.6974,1.2187-2.3456,1.0841-2.76-.5733-5.4443-1.4361-8.1684-2.1967Zm-21.9872-16.9179c-.9908-1.3611-1.3384-1.8386-1.6859-2.3161-2.1,1.3349-3.2245.3321-4.882-1.0053-1.0109-.8157-3.3328-3.4548-4.5438-1.3968-1.3848,2.3531-2.8781,1.7911-4.7721,1.7824-1.8436-.0084-3.6883.1771-5.74.2887,3.9452,3.0757,6.3609,3.6347,10.5412,2.5634a5.1777,5.1777,0,0,1,1.3606-.3045C278.5352,166.4816,281.4462,166.6189,285.3439,166.7813ZM230.9265,105.22l.333-1.1723c-3.1931-1.7162-6.3863-3.4323-9.0132-4.844a36.775,36.775,0,0,0-3.7892,1.9293c1.696,3.632-2.3546,2.6283-4.2337,3.9309C220.2319,107.8277,225.5112,103.7874,230.9265,105.22Zm-111.9941-.8c-1.3944,1.4631-2.5631,3.44-4.3984,4.4015-1.7984.9422-4.2752.8506-6.7779,1.2665,3.133,2.2688,15.1862.0876,16.3947-2.6292a7.7267,7.7267,0,0,0,.3228-2.0933c.0252-.1842.0363-.37.0887-.92l-2.666,2.1187c-.5567-.423-.9087-.7017-1.2743-.9653C120.1594,105.2652,119.6858,104.9441,118.9324,104.42Zm5.1591,16.0124-1.9968-1.8767,5.4665-2.77c-5.8115.0459-10.9707,1.32-15.4468,5.3623Zm-35.1464-9.4494c-2.0912,2.3906-3.37,2.8116-4.9078.8384a7.1479,7.1479,0,0,0-3.2809-1.828c-2.462,2.6176-5.8137-.084-8.5573,1.948l15.9615,3.007Zm87.6041-1.9814a32.9523,32.9523,0,0,1,5.4772-.6681c2.1511.1317,4.33,1.119,6.3881.9056,2.0888-.2166,4.0458-1.4477,6.0606-2.2344l-.4326-1.2087c-5.2912,3.45-10.599-.2111-16.4213,1.0358Zm203.334-41.63q.1983-.72.3965-1.4407c-2.5172-.8424-4.99-1.8357-7.5757-2.446-.9106-.2149-2.0984.5079-3.16.8025a19.1062,19.1062,0,0,0,2.3729,2.7048c.3212.262,1.307-.1953,1.991-.2037a33.3142,33.3142,0,0,1,3.4489.125C378.2078,66.9911,379.0418,67.2132,379.8832,67.3711Zm-48.3758,55.5268c-1.5336,0-2.7624.04-3.9869-.0086-2.3261-.0918-4.65-.2342-7.8245-.4,3.5,3.3713,7.0308,2.5455,10.2648,2.5023C330.5541,124.9837,331.122,123.45,331.5074,122.8979Zm-42.4958-20.91c-3.2559-5.1793-7.5809-1.915-11.2074-2.3249l-.1816,1.0915ZM56.8551,110.5925A15.3431,15.3431,0,0,0,46.0368,108.6C49.0924,111.4138,53.5238,112.2289,56.8551,110.5925Zm290.9393-5.8882c3.36,2.6964,7.13,2.1356,11.1247-1.896ZM255.0363,93.2391l5.4545-.5611.3171-.9069-4.5138-3.05Zm67.8974,38.7283c5.0455,3.3877,8.0235.1555,11.354-1.1557Zm36.5534,31.3538.1939,1.3759,5.9164,1.0319v-3.6041Zm23.03-94.1952c-.3482,1.8638-4.5733,1.6562-3.0323,3.6636,1.4823,1.9309,3.7.5559,5.4607-.7734ZM43.0614,132.4088c1.51,2.4273,5.692,2.7333,12.2722.865Zm97.1537-50.3607-.4474.9738,5.9815,1.8765c-.1394-1.2033-.2789-2.4067-.33-2.85Zm240.6027.0317.2242-1.2475-9.3233-.57-.1072,1.1635ZM53.2591,148.1825H43.8423C47.3635,150.7645,49.8816,150.1994,53.2591,148.1825Zm63.818-17.4339c3.5093,2.1434,5.7834.4332,8.153-.7018l-.1837-.8893ZM377.9988,74.4558q.3324-.57.6646-1.14l-2.0025-1.7007c-1.1066,2.6449-3.1634.1121-4.6528.6712l-.2355.9311Z"/></g></g></svg>